<svg width="575" height="577" viewBox="0 0 575 577" fill="none" xmlns="http://www.w3.org/2000/svg">
<path d="M0 576.856L40.5742 428.737C15.508 385.285 2.34148 335.994 2.40204 285.832C2.46811 128.222 130.748 0 288.384 0C364.88 0.0388623 436.681 29.8035 490.68 83.8338C544.679 137.864 574.39 209.682 574.363 286.061C574.293 443.66 445.994 571.905 288.38 571.905H288.256C240.398 571.886 193.372 559.881 151.6 537.108L0 576.856Z" fill="white"/>
<path d="M288.47 48.2864C157.357 48.2864 50.7304 154.858 50.6837 285.852C50.6192 330.582 63.2172 374.417 87.0214 412.29L92.6766 421.279L68.6602 508.945L158.624 485.359L167.311 490.504C203.796 512.155 245.63 523.603 288.291 523.627H288.38C419.393 523.627 526.019 417.043 526.069 286.042C526.168 254.818 520.072 223.885 508.133 195.034C496.194 166.182 478.649 139.985 456.515 117.959C434.504 95.8122 408.318 78.251 379.473 66.2917C350.628 54.3323 319.696 48.2125 288.47 48.2864Z" fill="url(#paint0_linear_3_2)"/>
<path d="M368.222 398.272H211.274C192.273 398.272 175.503 386.833 175.503 368.026V381.792C175.503 400.599 192.273 414.849 211.274 414.849H368.222C387.222 414.849 403.993 400.599 403.993 381.792V368.026C403.993 386.833 387.222 398.272 368.222 398.272Z" fill="#3A9F48"/>
<path d="M288.342 255.09C259.938 254.993 237.545 235.314 235.994 208.267V219.319C235.994 247.335 259.454 271.667 288.342 271.667C317.231 271.667 340.69 247.335 340.69 219.319V208.267C338.461 235.508 316.746 255.187 288.342 255.09Z" fill="#3BA048"/>
<path d="M288.342 287.682C233.086 287.682 175.406 314.632 175.406 350.985V367.465C175.406 386.271 190.819 400.522 209.82 400.522H369.482C388.482 400.522 403.896 386.271 403.896 367.465V350.985C403.993 314.535 343.599 287.682 288.342 287.682Z" fill="white"/>
<path d="M288.342 257.804C317.253 257.804 340.69 234.367 340.69 205.456C340.69 176.545 317.253 153.108 288.342 153.108C259.431 153.108 235.994 176.545 235.994 205.456C235.994 234.367 259.431 257.804 288.342 257.804Z" fill="white"/>
<path d="M254.69 337.712L244.545 347.293L267.654 370.402L311.617 327.002L303.163 318.548L268.781 352.366L254.69 337.712Z" fill="#4ECC5C"/>
<path d="M291.89 370.402L281.181 359.693L290.763 350.111L293.017 351.802L327.399 318.548L335.854 327.002L291.89 370.402Z" fill="#3A9F48"/>
<defs>
<linearGradient id="paint0_linear_3_2" x1="283.537" y1="76.8113" x2="285.947" y2="483.019" gradientUnits="userSpaceOnUse">
<stop stop-color="#57D163"/>
<stop offset="1" stop-color="#23B33A"/>
</linearGradient>
</defs>
</svg>
