<svg fill="#fff" id="Capa_1" enable-background="new 0 0 512 512" height="512" viewBox="0 0 512 512" width="512" xmlns="http://www.w3.org/2000/svg"><g><circle cx="256" cy="255.983" r="135"/><path d="m.53 323.205c1.392 5.142 5.42 9.17 10.562 10.547 19.233 5.215 38.288 17.549 48.22 34.731 10.005 17.3 12.671 37.324 7.515 56.367-1.406 5.186.073 10.723 3.867 14.531 3.779 3.794 9.346 5.2 14.517 3.882 19.028-5.156 40.99-2.476 58.29 7.515 17.183 9.917 29.517 25.972 34.731 45.22 1.377 5.142 5.405 9.17 10.547 10.562 5.127 1.406 10.635-.044 14.429-3.765 28.652-28.125 76.934-28.125 105.586 0 3.805 3.726 9.291 5.165 14.429 3.765 5.142-1.392 9.17-5.42 10.547-10.562 5.215-19.248 17.549-35.303 34.731-45.22 17.285-10.02 37.266-12.671 56.382-7.515 5.112 1.304 10.723-.088 14.517-3.882s5.273-9.331 3.882-14.517c-5.156-19.058.418-39.082 10.408-56.382 9.917-17.183 27.972-29.517 47.22-34.731 5.142-1.377 9.17-5.405 10.562-10.547 1.406-5.142-.029-10.635-3.765-14.429-14.063-14.326-21.812-33.076-21.812-52.793s7.749-38.467 21.812-52.793c3.735-3.794 5.171-9.287 3.765-14.429-1.392-5.142-5.42-9.17-10.562-10.547-19.248-5.215-37.303-17.549-47.22-34.731-9.99-17.3-13.671-37.324-8.515-56.396 1.392-5.186-.088-10.723-3.882-14.517-3.809-3.809-9.331-5.273-14.531-3.867-19.028 5.142-40.961 2.476-58.261-7.515-17.183-9.932-29.517-25.986-34.731-45.22-1.377-5.142-5.405-9.17-10.547-10.562-5.039-1.333-10.605.059-14.429 3.765-28.652 28.125-76.934 28.125-105.586 0-3.794-3.706-9.302-5.098-14.429-3.765-5.142 1.392-9.17 5.42-10.547 10.562-5.215 19.233-17.549 35.288-34.731 45.22-17.3 9.99-39.174 12.656-58.29 7.515-5.186-1.421-10.723.059-14.517 3.867-3.794 3.794-5.273 9.331-3.867 14.517 5.142 19.072 2.49 39.097-7.515 56.396-9.932 17.184-28.987 29.518-48.22 34.733-5.142 1.377-9.17 5.405-10.562 10.547-1.406 5.142.029 10.635 3.765 14.429 14.063 14.326 21.812 33.076 21.812 52.793s-7.749 38.467-21.812 52.793c-3.735 3.793-5.171 9.287-3.765 14.428zm255.47-232.222c90.981 0 165 74.019 165 165s-74.019 165-165 165-165-74.019-165-165 74.019-165 165-165z"/></g></svg>