<svg xmlns="http://www.w3.org/2000/svg" width="422.611" height="424.798" viewBox="0 0 422.611 424.798"><g transform="translate(-352 -198)"><path d="M179,84a174.875,174.875,0,0,1,95-13.7,171.661,171.661,0,0,1,89,39.8,174.728,174.728,0,0,1-79.9,304.8c-42,8-86.6.2-123-22-2.3-1-4.5-3.5-7.2-2.4L89,407l17-62.4c1-2.2-1-4-2-6a174.49,174.49,0,0,1-28.3-100c1-72,47-129,103-155" transform="translate(314.3 164.998)" fill="#40c351"/><path d="M129,71.4c46.2-33,106-45.6,162-34.4A210.809,210.809,0,0,1,445.9,320.3a211.681,211.681,0,0,1-74.2,95,210.271,210.271,0,0,1-222,13.5l-112,29,29.5-108c.6-1.3-.3-2.4-1-3.4a210,210,0,0,1-25-130,213,213,0,0,1,87.5-145M178.4,84a175.6,175.6,0,0,0-80.2,72.7,172.739,172.739,0,0,0-23,82.3,174.7,174.7,0,0,0,28.3,100c1,1.8,2.8,3.7,2,6l-17,62.4c21.3-5.4,42.6-11.2,64-16.6,2.7-1,5,1.2,7.2,2.4a175,175,0,0,0,123,22.1,173,173,0,0,0,68.6-29.5,174.471,174.471,0,0,0,11.3-275.3A174.1,174.1,0,0,0,178.5,84.4Z" transform="translate(314.3 164.998)" fill="#fcfcfc"/><rect width="211" height="27" rx="13.5" transform="translate(468 347)" fill="#fff"/><rect width="211" height="27" rx="13.5" transform="translate(468 455)" fill="#fff"/><rect width="168" height="27" rx="13.5" transform="translate(468 401)" fill="#fff"/></g></svg>