<?xml version="1.0" standalone="no"?>
<!DOCTYPE svg PUBLIC "-//W3C//DTD SVG 20010904//EN"
 "http://www.w3.org/TR/2001/REC-SVG-20010904/DTD/svg10.dtd">
<svg version="1.0" xmlns="http://www.w3.org/2000/svg"
 width="850.000000pt" height="850.000000pt" viewBox="0 0 850.000000 850.000000"
 preserveAspectRatio="xMidYMid meet">
<metadata>
Created by potrace 1.11, written by Peter Selinger 2001-2013
</metadata>
<g transform="translate(0.000000,850.000000) scale(0.100000,-0.100000)"
fill="#000000" stroke="none">
<path d="M4028 8495 c-1 -1 -45 -6 -95 -9 -51 -4 -103 -9 -115 -11 -13 -2 -50
-6 -83 -10 -33 -3 -67 -8 -75 -10 -8 -2 -37 -6 -64 -10 -27 -3 -53 -8 -57 -10
-4 -3 -22 -7 -40 -9 -49 -7 -98 -16 -144 -27 -22 -5 -49 -12 -59 -14 -10 -2
-55 -14 -100 -26 -45 -12 -87 -22 -93 -22 -7 0 -13 -4 -13 -9 0 -5 -4 -7 -9
-3 -5 3 -33 -4 -63 -16 -29 -11 -55 -20 -58 -20 -7 1 -98 -29 -135 -44 -16 -7
-84 -34 -150 -60 -203 -81 -521 -244 -635 -325 -16 -11 -31 -20 -34 -20 -4 0
-12 -5 -19 -10 -47 -39 -136 -98 -141 -93 -3 4 -6 1 -6 -5 0 -7 -6 -12 -14
-12 -8 0 -16 -3 -18 -7 -1 -5 -41 -37 -88 -73 -250 -191 -464 -397 -704 -680
-12 -14 -35 -43 -51 -65 -17 -22 -38 -49 -48 -60 -10 -11 -36 -48 -59 -82 -23
-35 -45 -63 -50 -63 -4 0 -8 -4 -8 -9 0 -11 -81 -134 -95 -143 -5 -4 -6 -8 -2
-8 4 0 -5 -19 -21 -42 -16 -24 -40 -63 -53 -88 -13 -25 -27 -47 -30 -50 -3 -3
-12 -18 -21 -35 -93 -184 -119 -238 -141 -285 -31 -68 -108 -251 -111 -265 -1
-5 -14 -41 -28 -80 -27 -71 -96 -291 -104 -332 -2 -12 -9 -34 -14 -48 -5 -14
-8 -25 -5 -25 2 0 -2 -21 -10 -47 -7 -27 -16 -61 -19 -78 -3 -16 -8 -43 -11
-60 -30 -152 -41 -223 -50 -315 -3 -31 -7 -65 -9 -77 -24 -125 -25 -641 -1
-838 2 -16 6 -53 9 -80 3 -28 7 -64 10 -80 3 -17 10 -59 15 -95 6 -36 12 -76
15 -90 10 -44 16 -74 21 -107 3 -18 9 -43 15 -57 5 -15 8 -26 6 -26 -2 0 5
-33 15 -72 11 -40 21 -80 23 -89 10 -41 29 -106 36 -124 5 -11 14 -38 20 -60
6 -22 15 -49 20 -60 21 -53 70 -192 70 -202 0 -6 5 -13 10 -15 6 -2 12 -13 14
-25 5 -24 10 -36 86 -198 28 -60 51 -112 50 -114 -1 -2 2 -7 7 -10 9 -6 36
-63 33 -69 -1 -2 7 -10 17 -18 10 -7 14 -14 10 -14 -4 0 3 -16 17 -36 20 -30
23 -41 14 -67 -5 -18 -11 -41 -13 -52 -3 -11 -16 -60 -30 -110 -33 -115 -36
-126 -40 -150 -2 -11 -11 -45 -20 -75 -9 -30 -17 -59 -18 -65 -2 -5 -6 -16
-10 -23 -5 -6 -6 -12 -3 -12 3 0 1 -11 -4 -25 -5 -14 -12 -36 -14 -48 -3 -12
-15 -56 -26 -97 -11 -41 -22 -82 -24 -90 -2 -8 -9 -35 -16 -60 -7 -25 -14 -53
-15 -62 -2 -10 -7 -23 -10 -28 -3 -5 -8 -19 -11 -30 -8 -39 -13 -58 -49 -190
-15 -52 -28 -102 -30 -110 -2 -8 -4 -15 -5 -15 -1 0 -3 -7 -5 -15 -2 -8 -9
-33 -15 -55 -6 -22 -13 -50 -15 -62 -3 -12 -10 -34 -15 -48 -5 -14 -7 -25 -5
-25 2 0 0 -12 -6 -27 -9 -24 -42 -140 -54 -193 -2 -8 -16 -55 -30 -105 -28
-97 -34 -119 -41 -151 -2 -12 -13 -51 -23 -85 -10 -35 -22 -76 -25 -91 -3 -14
-9 -33 -12 -42 -5 -13 -1 -14 25 -6 17 5 31 6 31 3 0 -3 7 0 15 7 8 7 15 10
15 7 0 -3 15 -1 33 4 17 6 40 12 50 14 10 2 27 7 37 10 10 3 27 7 37 9 10 2
45 11 78 20 33 9 69 19 80 21 11 3 56 14 100 26 105 28 186 49 208 54 10 2 27
7 37 10 10 3 28 8 39 10 12 3 30 7 41 10 12 2 55 14 98 25 42 12 84 23 92 25
8 2 87 22 175 45 88 23 169 43 180 45 11 1 20 3 20 4 0 2 7 4 15 6 8 2 94 24
190 49 96 26 182 48 190 50 8 2 35 9 60 16 25 7 53 14 62 16 10 2 26 6 36 8 9
2 37 9 62 16 25 7 52 14 60 15 8 2 16 4 18 5 7 7 91 23 95 19 2 -2 11 2 20 9
21 18 35 13 197 -67 168 -84 327 -148 540 -218 91 -30 172 -57 180 -59 130
-32 338 -79 400 -89 19 -3 46 -7 60 -10 14 -2 48 -7 75 -11 28 -3 61 -8 75 -9
160 -22 292 -29 520 -29 227 1 331 7 515 29 33 4 71 9 85 10 14 2 25 4 25 5 0
1 9 3 20 4 87 12 125 18 155 26 19 5 49 12 65 15 17 2 41 7 55 10 39 8 238 61
315 84 39 12 77 23 85 25 8 2 29 10 45 17 17 7 32 13 35 14 28 7 128 44 200
75 50 21 90 35 90 32 0 -4 4 -2 8 3 4 6 32 21 62 35 30 14 57 28 58 33 2 4 10
7 18 7 18 0 228 110 232 122 2 4 8 8 14 8 12 0 180 99 188 110 3 4 20 15 39
25 19 9 39 21 45 26 6 5 47 35 91 66 44 32 87 63 95 70 8 6 53 42 100 80 47
37 90 72 97 78 237 212 388 369 553 575 19 24 41 49 48 56 6 7 12 17 12 23 0
6 5 11 10 11 6 0 10 7 10 15 0 8 3 15 8 15 4 0 18 17 32 38 14 20 42 59 62 87
21 27 38 56 38 63 0 6 4 12 8 12 5 0 19 19 32 43 13 23 26 44 30 47 3 3 18 25
31 50 14 25 36 63 49 85 12 22 47 87 77 145 30 58 59 111 65 117 6 7 8 13 5
13 -4 0 4 21 17 48 36 71 82 180 102 242 11 30 21 57 24 60 5 4 15 33 35 100
1 3 5 13 9 22 4 9 9 22 10 30 2 7 6 20 9 28 15 39 94 337 102 385 2 11 10 54
18 95 9 41 13 78 11 82 -3 4 -1 8 3 8 5 0 9 10 9 23 1 21 8 79 19 142 19 107
30 310 30 540 0 247 -8 377 -29 530 -3 17 -8 53 -12 80 -3 28 -8 59 -10 70 -4
19 -9 50 -18 105 -2 14 -10 48 -16 75 -7 28 -14 64 -17 80 -7 42 -11 60 -13
60 -1 0 -3 7 -5 15 -1 8 -10 42 -19 75 -9 33 -24 85 -32 115 -8 30 -17 62 -21
70 -4 8 -8 20 -8 25 -1 6 -7 23 -13 38 -7 16 -12 32 -12 36 0 8 -31 91 -56
148 -8 17 -14 34 -14 38 0 11 -65 156 -121 272 -27 56 -49 106 -49 112 0 6 -3
11 -8 11 -4 0 -13 15 -21 33 -8 17 -17 34 -20 37 -3 3 -17 26 -29 52 -47 92
-292 461 -347 522 -6 6 -32 38 -59 71 -204 254 -453 490 -786 743 -41 32 -269
182 -275 182 -3 0 -18 8 -33 19 -41 28 -81 51 -89 52 -5 1 -19 9 -33 19 -23
16 -341 174 -385 190 -11 5 -38 16 -60 26 -22 10 -42 18 -45 19 -6 0 -68 24
-95 36 -29 13 -255 87 -285 93 -14 3 -65 17 -114 30 -49 14 -100 28 -115 30
-41 9 -116 24 -118 25 -2 1 -4 1 -5 2 -6 1 -44 8 -111 19 -40 7 -79 14 -88 15
-27 5 -145 19 -254 31 -49 5 -602 14 -607 9z m-1978 -1508 c0 -2 -10 -12 -22
-23 l-23 -19 19 23 c18 21 26 27 26 19z m-90 -81 c0 -2 -8 -10 -17 -17 -16
-13 -17 -12 -4 4 13 16 21 21 21 13z m-90 -80 c0 -3 -4 -8 -10 -11 -5 -3 -10
-1 -10 4 0 6 5 11 10 11 6 0 10 -2 10 -4z m-40 -39 c0 -2 -10 -12 -21 -23 -22
-19 -22 -19 -8 4 12 19 29 30 29 19z m-100 -106 c0 -5 -7 -12 -16 -15 -14 -5
-15 -4 -4 9 14 17 20 19 20 6z m-50 -55 c0 -2 -8 -10 -17 -17 -16 -13 -17 -12
-4 4 13 16 21 21 21 13z m-117 -131 c-3 -9 -8 -14 -10 -11 -3 3 -2 9 2 15 9
16 15 13 8 -4z m-43 -59 c0 -2 -8 -10 -17 -17 -16 -13 -17 -12 -4 4 13 16 21
21 21 13z m-723 -1811 c0 -8 -4 -12 -9 -9 -5 3 -6 10 -3 15 9 13 12 11 12 -6z
m-10 -57 c-3 -7 -5 -2 -5 12 0 14 2 19 5 13 2 -7 2 -19 0 -25z m0 -40 c-3 -8
-6 -5 -6 6 -1 11 2 17 5 13 3 -3 4 -12 1 -19z m-6 -41 c-10 -9 -11 -8 -5 6 3
10 9 15 12 12 3 -3 0 -11 -7 -18z m1 -139 c-4 -191 -9 -209 -10 -35 0 86 3
157 6 157 4 0 6 -55 4 -122z m3 -228 c1 -16 -3 -30 -7 -30 -4 0 -8 14 -8 30 0
17 3 30 8 30 4 0 7 -13 7 -30z m8 -112 c2 -32 1 -58 -3 -58 -3 0 -7 19 -9 41
-1 23 -2 45 -3 48 0 3 1 15 2 26 3 30 8 6 13 -57z m9 -93 c3 -14 1 -25 -3 -25
-5 0 -9 11 -9 25 0 14 2 25 4 25 2 0 6 -11 8 -25z m8 -67 c0 -12 -3 -18 -7
-14 -10 10 -11 46 -1 40 4 -3 8 -15 8 -26z m10 -65 c0 -32 -5 -28 -14 10 -4
19 -3 26 4 22 5 -3 10 -18 10 -32z m5 -50 c-1 -10 2 -24 8 -30 6 -9 6 -13 -1
-13 -11 0 -22 23 -22 46 0 8 4 14 9 14 5 0 8 -8 6 -17z m18 -83 c3 -11 1 -20
-4 -20 -5 0 -9 3 -10 8 0 4 -2 15 -4 25 -4 23 11 12 18 -13z m32 -163 c2 -12
14 -56 25 -97 11 -41 22 -82 24 -90 3 -8 9 -27 15 -42 6 -17 7 -28 1 -28 -5 0
-14 19 -20 43 -6 23 -13 49 -16 57 -3 8 -8 29 -11 45 -3 17 -10 36 -15 43 -6
6 -8 12 -4 12 3 0 1 11 -4 24 -5 13 -12 43 -15 66 -3 23 -10 52 -15 65 -5 13
-6 26 -2 29 5 6 15 -29 37 -127z m108 -368 c19 -53 40 -105 46 -117 13 -25 14
-32 3 -32 -5 0 -14 15 -19 33 -6 17 -22 61 -36 97 -26 70 -42 128 -33 119 3
-3 21 -48 39 -100z m67 -169 c0 -9 40 -100 62 -142 5 -12 5 -18 -1 -18 -6 0
-13 11 -17 25 -3 14 -10 25 -15 25 -5 0 -8 3 -7 8 0 4 -2 16 -7 27 -4 11 -14
35 -21 53 -7 18 -9 32 -3 32 5 0 9 -4 9 -10z m100 -222 c13 -29 27 -55 30 -58
3 -3 15 -24 27 -47 12 -23 48 -85 80 -137 32 -53 68 -113 80 -134 23 -38 30
-82 14 -82 -5 0 -7 8 -5 18 3 9 -16 51 -41 92 -25 41 -51 84 -58 95 -7 11 -19
31 -28 45 -36 55 -140 260 -132 260 4 0 19 -24 33 -52z m233 -483 c-3 -9 -8
-14 -10 -11 -3 3 -2 9 2 15 9 16 15 13 8 -4z m-26 -87 c-3 -8 -6 -5 -6 6 -1
11 2 17 5 13 3 -3 4 -12 1 -19z m-14 -68 c-3 -11 -10 -23 -16 -27 -5 -3 -8 -2
-5 3 3 5 8 17 11 27 9 24 16 22 10 -3z m-36 -112 c-3 -8 -6 -5 -6 6 -1 11 2
17 5 13 3 -3 4 -12 1 -19z m-10 -40 c-3 -8 -6 -5 -6 6 -1 11 2 17 5 13 3 -3 4
-12 1 -19z m-46 -165 c-12 -20 -14 -14 -5 12 4 9 9 14 11 11 3 -2 0 -13 -6
-23z m-10 -50 c-8 -15 -10 -15 -11 -2 0 17 10 32 18 25 2 -3 -1 -13 -7 -23z
m-18 -68 c-3 -9 -8 -14 -10 -11 -3 3 -2 9 2 15 9 16 15 13 8 -4z m-10 -40 c-3
-9 -8 -14 -10 -11 -3 3 -2 9 2 15 9 16 15 13 8 -4z m-17 -57 c-3 -13 -5 -23
-6 -23 -1 0 -3 -9 -5 -21 -3 -11 -9 -31 -15 -45 -10 -22 -10 -22 -4 6 11 55
12 60 14 63 3 3 7 19 9 32 0 6 3 10 6 10 3 0 3 -10 1 -22z m-45 -149 c-5 -13
-10 -19 -10 -12 -1 15 10 45 15 40 3 -2 0 -15 -5 -28z m-19 -81 c-8 -8 -9 -4
-5 13 4 13 8 18 11 10 2 -7 -1 -18 -6 -23z m1258 12 c0 -5 -2 -10 -4 -10 -3 0
-8 5 -11 10 -3 6 -1 10 4 10 6 0 11 -4 11 -10z m50 -26 c0 -2 -9 0 -20 6 -11
6 -20 13 -20 16 0 2 9 0 20 -6 11 -6 20 -13 20 -16z m60 -37 c0 -9 -36 9 -44
22 -4 5 5 4 19 -2 14 -7 25 -16 25 -20z m-1389 -24 c-12 -20 -14 -14 -5 12 4
9 9 14 11 11 3 -2 0 -13 -6 -23z m1429 9 c0 -4 29 -22 65 -40 35 -19 67 -37
70 -42 6 -9 -112 51 -150 77 -17 11 -17 13 -2 13 9 0 17 -3 17 -8z m-1430 -36
c0 -3 -4 -8 -10 -11 -5 -3 -10 -1 -10 4 0 6 5 11 10 11 6 0 10 -2 10 -4z m-17
-41 c-3 -9 -8 -14 -10 -11 -3 3 -2 9 2 15 9 16 15 13 8 -4z m1742 -83 c-5 -5
-145 60 -145 68 0 3 33 -10 74 -29 41 -20 73 -37 71 -39z m-1762 -2 c-3 -12
-8 -19 -11 -16 -5 6 5 36 12 36 2 0 2 -9 -1 -20z m1817 -22 c0 -5 -9 -4 -20 2
-11 6 -20 12 -20 14 0 2 9 2 20 -1 11 -3 20 -9 20 -15z m2780 8 c0 -3 -4 -8
-10 -11 -5 -3 -10 -1 -10 4 0 6 5 11 10 11 6 0 10 -2 10 -4z m-4619 -52 c-5
-16 -10 -21 -10 -12 -1 18 10 51 15 45 2 -1 -1 -16 -5 -33z m1924 8 c-3 -3
-11 0 -18 7 -9 10 -8 11 6 5 10 -3 15 -9 12 -12z m2635 14 c0 -2 -9 -6 -20 -9
-11 -3 -18 -1 -14 4 5 9 34 13 34 5z m-2590 -26 c8 -5 12 -11 10 -14 -3 -2
-14 2 -24 10 -22 15 -10 19 14 4z m70 -25 c33 -19 21 -19 -21 0 -19 8 -27 14
-19 14 8 0 26 -6 40 -14z m139 -51 c9 -9 -53 7 -63 17 -5 5 5 4 24 -1 18 -5
35 -12 39 -16z m81 -19 c8 -2 29 -9 45 -15 l30 -10 -30 5 c-48 8 -72 14 -97
25 -20 9 -20 10 7 4 17 -3 37 -8 45 -9z m188 -48 c6 0 12 -4 12 -9 0 -9 -40
-2 -75 14 -13 5 -8 6 15 2 19 -4 41 -7 48 -7z m87 -21 c28 -8 41 -14 30 -14
-21 0 -107 25 -90 27 6 0 33 -6 60 -13z m1352 -12 c-3 -3 -12 -4 -19 -1 -8 3
-5 6 6 6 11 1 17 -2 13 -5z m-1254 -11 c-7 -2 -21 -2 -30 0 -10 3 -4 5 12 5
17 0 24 -2 18 -5z m75 -7 c19 -2 36 -7 40 -10 9 -10 -83 6 -93 16 -7 6 -5 7 5
4 8 -3 30 -7 48 -10z m1135 7 c-7 -2 -19 -2 -25 0 -7 3 -2 5 12 5 14 0 19 -2
13 -5z m-46 -9 c-3 -3 -12 -4 -19 -1 -8 3 -5 6 6 6 11 1 17 -2 13 -5z m-1007
-8 c0 -11 -19 -15 -25 -6 -3 5 1 10 9 10 9 0 16 -2 16 -4z m910 0 c0 -2 -7 -7
-16 -10 -8 -3 -12 -2 -9 4 6 10 25 14 25 6z m-837 -13 c-7 -2 -21 -2 -30 0
-10 3 -4 5 12 5 17 0 24 -2 18 -5z m87 -9 c0 -3 -15 -4 -34 -2 -19 1 -33 5
-31 8 4 7 65 1 65 -6z m630 12 c0 -2 -7 -7 -16 -10 -8 -3 -12 -2 -9 4 6 10 25
14 25 6z m37 -2 c-3 -3 -12 -4 -19 -1 -8 3 -5 6 6 6 11 1 17 -2 13 -5z m-617
-14 c0 -4 -7 -7 -15 -6 -23 3 -26 12 -5 13 11 1 20 -2 20 -7z m41 -8 c-7 -2
-18 1 -23 6 -8 8 -4 9 13 5 13 -4 18 -8 10 -11z m241 4 c7 4 8 2 4 -5 -9 -13
-26 -5 -25 12 0 9 2 8 6 -1 2 -6 10 -9 15 -6z m112 6 c2 -4 -10 -8 -27 -9 -30
-1 -30 -1 -7 7 14 4 26 8 27 9 1 1 4 -3 7 -7z m52 -4 c3 -4 -1 -5 -10 -4 -8 1
-18 5 -22 8 -3 4 1 5 10 4 8 -1 18 -5 22 -8z m87 5 c-7 -2 -21 -2 -30 0 -10 3
-4 5 12 5 17 0 24 -2 18 -5z m-430 -10 c-7 -2 -21 -2 -30 0 -10 3 -4 5 12 5
17 0 24 -2 18 -5z m61 -2 c3 -4 -6 -6 -19 -3 -14 2 -25 6 -25 8 0 8 39 4 44
-5z m49 2 c-7 -2 -19 -2 -25 0 -7 3 -2 5 12 5 14 0 19 -2 13 -5z m114 1 c-3
-3 -12 -4 -19 -1 -8 3 -5 6 6 6 11 1 17 -2 13 -5z"/>
</g>
</svg>
