<?xml version="1.0" standalone="no"?>
<!DOCTYPE svg PUBLIC "-//W3C//DTD SVG 20010904//EN"
 "http://www.w3.org/TR/2001/REC-SVG-20010904/DTD/svg10.dtd">
<svg version="1.0" xmlns="http://www.w3.org/2000/svg"
 width="577.000000pt" height="577.000000pt" viewBox="0 0 577.000000 577.000000"
 preserveAspectRatio="xMidYMid meet">
<metadata>
Created by potrace 1.14, written by Peter Selinger 2001-2017
</metadata>
<g transform="translate(0.000000,577.000000) scale(0.100000,-0.100000)"
fill="#000000" stroke="none">
<path d="M2690 5284 c-354 -43 -596 -113 -865 -248 -703 -356 -1181 -1023
-1290 -1801 -76 -540 40 -1093 329 -1570 l67 -110 -116 -425 c-64 -234 -118
-431 -120 -437 -3 -7 1 -13 8 -13 7 0 210 52 453 115 l441 116 79 -47 c258
-153 565 -263 874 -311 161 -25 529 -25 690 0 344 54 680 182 955 366 158 105
237 169 368 299 388 383 620 849 693 1393 20 148 22 430 5 574 -99 811 -588
1502 -1316 1860 -222 110 -447 181 -690 220 -96 16 -485 29 -565 19z m336
-1068 c130 -34 260 -137 321 -252 185 -348 -62 -764 -452 -764 -224 0 -416
137 -491 349 -31 88 -33 230 -4 323 51 164 203 309 366 347 60 14 203 12 260
-3z m174 -1355 c170 -30 309 -74 455 -146 148 -72 242 -144 311 -237 65 -89
76 -138 72 -320 -3 -136 -6 -158 -26 -200 -31 -63 -91 -121 -160 -155 l-57
-28 -864 -3 c-765 -2 -870 -1 -919 13 -99 29 -173 92 -214 180 -21 46 -23 64
-23 215 0 164 0 166 31 230 110 233 472 419 910 470 115 13 352 4 484 -19z"/>
<path d="M2871 2424 l-172 -167 -67 66 c-37 37 -72 67 -78 67 -5 0 -31 -21
-57 -48 l-47 -47 118 -117 117 -116 225 218 225 219 -46 46 -46 47 -172 -168z"/>
<path d="M3113 2426 c-105 -102 -176 -164 -185 -161 -8 3 -34 -16 -63 -45
l-50 -50 58 -58 57 -57 222 223 223 222 -46 46 -46 46 -170 -166z"/>
</g>
</svg>
